<?xml version="1.0" encoding="UTF-8" standalone="no"?>
<!DOCTYPE svg PUBLIC "-//W3C//DTD SVG 20010904//EN"
              "http://www.w3.org/TR/2001/REC-SVG-20010904/DTD/svg10.dtd">

<svg xmlns="http://www.w3.org/2000/svg"
     width="0.273333in" height="0.303333in"
     viewBox="0 0 82 91">
  <path id="Auswahl"
        fill="#ffffff" stroke="none" stroke-width="1"
        d="M 39.00,46.00
           C 39.00,46.00 16.00,46.00 16.00,46.00
             14.05,45.96 11.37,46.10 10.02,44.40
             8.77,42.81 9.00,38.99 9.00,37.00
             9.00,37.00 9.00,21.00 9.00,21.00
             9.02,18.65 8.81,15.39 10.60,13.60
             12.52,11.68 16.46,12.01 19.00,12.00
             19.00,12.00 65.00,12.00 65.00,12.00
             73.15,12.15 72.99,14.78 73.00,22.00
             73.00,22.00 73.00,39.00 73.00,39.00
             72.97,40.62 73.04,43.06 71.98,44.40
             70.41,46.38 66.30,46.00 64.00,46.00
             64.00,46.00 43.00,46.00 43.00,46.00
             43.00,46.00 43.00,49.00 43.00,49.00
             48.45,49.00 51.89,47.95 56.00,52.00
             50.32,53.61 31.68,53.61 26.00,52.00
             30.11,47.95 33.55,49.00 39.00,49.00
             39.00,49.00 39.00,46.00 39.00,46.00 Z
           M 68.00,17.00
           C 68.00,17.00 14.00,17.00 14.00,17.00
             14.00,17.00 14.00,42.00 14.00,42.00
             14.00,42.00 68.00,42.00 68.00,42.00
             68.00,42.00 68.00,17.00 68.00,17.00 Z
           M 18.31,57.02
           C 22.58,55.40 27.47,56.00 32.00,56.00
             32.00,56.00 57.00,56.00 57.00,56.00
             59.35,56.02 62.61,55.81 64.40,57.60
             66.73,59.92 66.73,72.08 64.40,74.40
             62.48,76.32 58.54,75.99 56.00,76.00
             56.00,76.00 24.00,76.00 24.00,76.00
             21.86,75.96 19.23,76.04 17.60,74.40
             15.51,72.31 15.45,61.79 16.60,59.15
             17.37,57.36 17.53,57.86 18.31,57.02 Z
           M 61.00,61.00
           C 61.00,61.00 21.00,61.00 21.00,61.00
             21.00,61.00 21.00,71.00 21.00,71.00
             21.00,71.00 61.00,71.00 61.00,71.00
             61.00,71.00 61.00,61.00 61.00,61.00 Z
           M 46.16,64.16
           C 48.81,64.76 49.19,66.64 47.46,67.62
             45.86,68.51 42.60,66.44 46.16,64.16 Z
           M 55.16,64.16
           C 57.81,64.76 58.19,66.64 56.46,67.62
             54.86,68.51 51.60,66.44 55.16,64.16 Z" />
</svg>
