<?xml version="1.0" encoding="UTF-8" standalone="no"?>
<!DOCTYPE svg PUBLIC "-//W3C//DTD SVG 20010904//EN"
              "http://www.w3.org/TR/2001/REC-SVG-20010904/DTD/svg10.dtd">

<svg xmlns="http://www.w3.org/2000/svg"
     width="0.316667in" height="0.31in"
     viewBox="0 0 95 93">
  <path id="Auswahl"
        fill="#ffffff" stroke="none" stroke-width="1"
        d="M 20.00,19.00
           C 23.25,22.30 22.97,23.53 23.00,28.00
             23.00,28.00 23.00,51.00 23.00,51.00
             26.53,51.00 38.21,50.38 40.69,52.02
             43.45,53.86 42.99,58.09 43.00,61.00
             43.01,64.52 43.38,77.41 42.41,79.89
             41.72,81.62 41.18,81.81 40.00,83.00
             36.85,77.03 38.00,69.60 38.00,63.00
             38.00,63.00 23.00,63.00 23.00,63.00
             23.00,69.39 24.79,78.14 20.00,83.00
             17.11,77.51 18.00,72.08 18.00,66.00
             18.00,66.00 18.00,36.00 18.00,36.00
             18.00,29.92 17.11,24.49 20.00,19.00 Z
           M 79.00,19.00
           C 83.31,23.37 82.00,29.19 82.00,35.00
             82.00,35.00 82.00,73.00 82.00,73.00
             81.99,77.75 82.52,79.44 79.00,83.00
             75.85,77.03 77.00,69.60 77.00,63.00
             77.00,63.00 62.00,63.00 62.00,63.00
             62.00,69.39 63.79,78.14 59.00,83.00
             55.76,76.85 56.87,66.06 57.00,59.00
             57.05,56.48 56.95,53.60 59.31,52.02
             61.79,50.38 73.47,51.00 77.00,51.00
             77.00,42.78 75.44,25.74 79.00,19.00 Z
           M 48.00,43.00
           C 44.91,43.00 32.34,43.39 30.30,42.40
             27.12,40.83 27.11,33.35 30.30,31.74
             31.91,30.92 35.17,31.01 37.00,31.00
             37.00,31.00 62.00,31.00 62.00,31.00
             64.26,31.00 68.62,30.75 70.41,32.17
             72.59,33.88 72.54,40.28 70.41,41.98
             68.27,43.67 55.36,43.00 52.00,43.00
             52.00,51.65 52.94,76.19 51.00,83.00
             51.00,83.00 49.00,83.00 49.00,83.00
             47.06,76.19 48.00,51.65 48.00,43.00 Z
           M 68.00,36.00
           C 68.00,36.00 32.00,36.00 32.00,36.00
             32.00,36.00 32.00,39.00 32.00,39.00
             32.00,39.00 68.00,39.00 68.00,39.00
             68.00,39.00 68.00,36.00 68.00,36.00 Z
           M 38.00,56.00
           C 38.00,56.00 23.00,56.00 23.00,56.00
             23.00,56.00 23.00,59.00 23.00,59.00
             23.00,59.00 38.00,59.00 38.00,59.00
             38.00,59.00 38.00,56.00 38.00,56.00 Z
           M 77.00,56.00
           C 77.00,56.00 62.00,56.00 62.00,56.00
             62.00,56.00 62.00,59.00 62.00,59.00
             62.00,59.00 77.00,59.00 77.00,59.00
             77.00,59.00 77.00,56.00 77.00,56.00 Z" />
</svg>
