<?xml version="1.0" encoding="UTF-8" standalone="no"?>
<!DOCTYPE svg PUBLIC "-//W3C//DTD SVG 20010904//EN"
              "http://www.w3.org/TR/2001/REC-SVG-20010904/DTD/svg10.dtd">

<svg xmlns="http://www.w3.org/2000/svg"
     width="0.226667in" height="0.273333in"
     viewBox="0 0 68 82">
  <path id="Auswahl"
        fill="#ffffff" stroke="none" stroke-width="1"
        d="M 5.00,55.00
           C 5.00,55.00 21.07,55.00 21.07,55.00
             20.34,58.74 19.69,61.27 21.07,65.00
             24.69,74.05 36.25,74.55 41.49,67.89
             44.42,64.16 44.20,60.28 43.00,56.00
             43.00,56.00 59.00,55.00 59.00,55.00
             56.27,45.74 40.90,38.42 35.60,30.83
             32.46,26.34 35.22,16.81 33.00,9.00
             26.62,13.78 32.28,23.55 28.98,29.99
             25.07,37.62 7.78,45.75 5.00,55.00 Z
           M 51.00,50.00
           C 51.00,50.00 38.00,51.00 38.00,51.00
             38.00,51.00 14.00,51.00 14.00,51.00
             14.00,51.00 26.00,39.17 26.00,39.17
             26.00,39.17 33.00,35.87 33.00,35.87
             33.00,35.87 51.00,50.00 51.00,50.00 Z
           M 27.23,55.81
           C 29.93,54.97 35.15,54.36 37.57,55.81
             41.17,58.50 40.11,65.41 34.96,67.40
             27.33,70.34 20.00,60.83 27.23,55.81 Z" />
</svg>
