<?xml version="1.0" encoding="UTF-8" standalone="no"?>
<!DOCTYPE svg PUBLIC "-//W3C//DTD SVG 20010904//EN"
              "http://www.w3.org/TR/2001/REC-SVG-20010904/DTD/svg10.dtd">

<svg xmlns="http://www.w3.org/2000/svg"
     width="0.28in" height="0.27in"
     viewBox="0 0 84 81">
  <path id="Auswahl"
        fill="#ffffff" stroke="none" stroke-width="1"
        d="M 17.00,69.00
           C 17.00,69.00 19.00,76.00 19.00,76.00
             21.76,73.20 21.68,72.88 22.00,69.00
             22.00,69.00 64.00,69.00 64.00,69.00
             64.00,69.00 66.00,76.00 66.00,76.00
             68.76,73.20 68.68,72.88 69.00,69.00
             70.68,68.72 72.08,68.73 73.40,67.40
             75.96,64.84 75.01,52.89 75.00,49.00
             74.99,45.68 75.19,42.10 73.69,39.04
             73.69,39.04 69.59,32.83 69.59,32.83
             68.66,30.42 69.30,24.76 67.66,20.00
             64.92,12.10 57.03,12.01 50.00,12.00
             41.88,11.99 24.81,10.06 19.72,17.11
             16.26,21.91 17.42,29.10 16.69,31.91
             15.80,35.30 13.30,36.35 11.89,40.01
             10.54,43.53 10.99,54.67 11.00,59.00
             11.00,61.19 10.79,64.84 12.02,66.69
             13.32,68.64 14.95,68.66 17.00,69.00 Z
           M 58.00,47.00
           C 58.00,47.00 28.00,47.00 28.00,47.00
             26.79,32.71 21.73,41.04 22.00,26.00
             22.05,23.27 22.03,20.52 24.31,18.60
             26.20,17.01 28.68,17.05 31.00,17.00
             31.00,17.00 53.00,17.00 53.00,17.00
             55.77,17.01 59.44,16.71 61.69,18.60
             64.48,20.95 64.05,25.67 64.00,29.00
             63.83,39.16 59.10,34.07 58.00,47.00 Z
           M 33.63,28.15
           C 31.62,31.48 35.18,31.81 36.14,30.97
             37.18,30.05 37.06,27.73 33.63,28.15 Z
           M 50.36,28.15
           C 47.58,31.71 51.84,32.05 52.85,30.44
             54.25,28.20 51.76,27.98 50.36,28.15 Z
           M 23.00,64.00
           C 23.00,64.00 16.00,64.00 16.00,64.00
             16.00,64.00 16.00,47.00 16.00,47.00
             16.02,44.64 15.75,40.41 18.30,39.17
             22.88,36.93 22.98,44.59 23.00,47.00
             23.00,47.00 23.00,64.00 23.00,64.00 Z
           M 70.00,64.00
           C 70.00,64.00 63.00,64.00 63.00,64.00
             63.00,64.00 63.00,47.00 63.00,47.00
             63.02,44.64 62.75,40.41 65.30,39.17
             69.88,36.93 69.98,44.59 70.00,47.00
             70.00,47.00 70.00,64.00 70.00,64.00 Z
           M 58.00,51.00
           C 58.00,51.00 58.00,64.00 58.00,64.00
             58.00,64.00 28.00,64.00 28.00,64.00
             28.00,64.00 28.00,51.00 28.00,51.00
             28.00,51.00 58.00,51.00 58.00,51.00 Z" />
</svg>
