<?xml version="1.0" encoding="UTF-8" standalone="no"?>
<!DOCTYPE svg PUBLIC "-//W3C//DTD SVG 20010904//EN"
              "http://www.w3.org/TR/2001/REC-SVG-20010904/DTD/svg10.dtd">

<svg xmlns="http://www.w3.org/2000/svg"
     width="0.323333in" height="0.293333in"
     viewBox="0 0 97 88">
  <path id="Auswahl"
        fill="#ffffff" stroke="none" stroke-width="1"
        d="M 24.00,48.00
           C 24.00,48.00 19.00,49.00 19.00,49.00
             19.00,49.00 19.00,51.00 19.00,51.00
             19.00,51.00 24.00,52.00 24.00,52.00
             24.00,52.00 24.74,68.00 24.74,68.00
             24.74,68.00 33.00,82.00 33.00,82.00
             35.76,79.20 35.68,78.88 36.00,75.00
             36.00,75.00 66.00,75.00 66.00,75.00
             66.00,75.00 68.00,82.00 68.00,82.00
             68.00,82.00 72.00,75.28 72.00,75.28
             72.00,75.28 77.26,68.00 77.26,68.00
             77.26,68.00 78.00,52.00 78.00,52.00
             78.00,52.00 83.00,51.00 83.00,51.00
             83.00,51.00 83.00,49.00 83.00,49.00
             83.00,49.00 63.00,48.00 63.00,48.00
             63.00,48.00 28.00,48.00 28.00,48.00
             28.00,43.98 27.55,31.01 28.74,28.01
             31.66,20.69 37.23,23.16 41.00,28.01
             41.00,28.01 37.00,29.00 37.00,29.00
             37.00,29.00 37.00,31.00 37.00,31.00
             41.76,32.35 45.24,32.35 50.00,31.00
             50.00,31.00 50.00,29.00 50.00,29.00
             50.00,29.00 45.00,28.00 45.00,28.00
             42.59,16.68 30.61,16.21 26.01,23.11
             22.89,27.77 24.00,41.98 24.00,48.00 Z
           M 74.00,52.00
           C 74.00,63.21 76.19,69.81 66.00,70.00
             66.00,70.00 37.00,70.00 37.00,70.00
             34.66,69.98 31.51,70.21 29.74,68.40
             27.21,65.82 28.00,55.75 28.00,52.00
             28.00,52.00 74.00,52.00 74.00,52.00 Z" />
</svg>
