<?xml version="1.0" encoding="UTF-8" standalone="no"?>
<!DOCTYPE svg PUBLIC "-//W3C//DTD SVG 20010904//EN"
              "http://www.w3.org/TR/2001/REC-SVG-20010904/DTD/svg10.dtd">

<svg xmlns="http://www.w3.org/2000/svg"
     width="0.276667in" height="0.28in"
     viewBox="0 0 83 84">
  <path id="Auswahl"
        fill="#ffffff" stroke="none" stroke-width="1"
        d="M 19.00,69.00
           C 19.32,72.88 19.24,73.20 22.00,76.00
             22.00,76.00 23.00,69.00 23.00,69.00
             23.00,69.00 66.00,69.00 66.00,69.00
             66.32,72.88 66.24,73.20 69.00,76.00
             69.00,76.00 70.00,69.00 70.00,69.00
             77.02,68.41 76.01,66.06 76.00,57.00
             75.98,43.29 71.14,39.88 69.32,29.00
             68.64,24.90 69.87,18.38 67.40,15.28
             64.54,11.68 59.12,12.01 55.00,12.00
             55.00,12.00 34.00,12.00 34.00,12.00
             29.80,12.01 24.88,11.67 22.01,15.39
             18.91,19.40 20.49,26.17 19.79,31.00
             18.69,38.70 13.13,46.21 13.00,56.00
             12.92,62.39 11.40,67.73 19.00,69.00 Z
           M 65.00,17.00
           C 65.00,17.00 65.00,29.00 65.00,29.00
             65.00,29.00 62.00,29.00 62.00,29.00
             61.87,27.40 61.91,25.72 60.98,24.31
             59.38,21.92 47.73,18.46 46.00,29.00
             46.00,29.00 43.00,29.00 43.00,29.00
             42.87,27.40 42.91,25.72 41.98,24.31
             40.38,21.92 28.73,18.46 27.00,29.00
             27.00,29.00 24.00,29.00 24.00,29.00
             24.00,26.20 23.44,19.85 25.74,17.99
             27.53,16.55 34.52,17.00 37.00,17.00
             37.00,17.00 65.00,17.00 65.00,17.00 Z
           M 39.00,26.00
           C 39.00,26.00 39.00,29.00 39.00,29.00
             39.00,29.00 31.00,29.00 31.00,29.00
             31.00,29.00 31.00,26.00 31.00,26.00
             31.00,26.00 39.00,26.00 39.00,26.00 Z
           M 58.00,26.00
           C 58.00,26.00 58.00,29.00 58.00,29.00
             58.00,29.00 50.00,29.00 50.00,29.00
             50.00,29.00 50.00,26.00 50.00,26.00
             50.00,26.00 58.00,26.00 58.00,26.00 Z
           M 72.00,52.00
           C 72.00,52.00 18.00,52.00 18.00,52.00
             18.00,52.00 23.00,34.00 23.00,34.00
             23.00,34.00 53.00,34.00 53.00,34.00
             55.84,34.00 63.36,33.53 65.49,35.02
             68.08,36.84 71.47,48.64 72.00,52.00 Z
           M 72.00,56.00
           C 72.00,56.00 72.00,64.00 72.00,64.00
             72.00,64.00 17.00,64.00 17.00,64.00
             17.00,64.00 17.00,56.00 17.00,56.00
             17.00,56.00 72.00,56.00 72.00,56.00 Z" />
</svg>
