<?xml version="1.0" encoding="UTF-8" standalone="no"?>
<!DOCTYPE svg PUBLIC "-//W3C//DTD SVG 20010904//EN"
              "http://www.w3.org/TR/2001/REC-SVG-20010904/DTD/svg10.dtd">

<svg xmlns="http://www.w3.org/2000/svg"
     width="0.243333in" height="0.326667in"
     viewBox="0 0 73 98">
  <path id="Auswahl"
        fill="#ffffff" stroke="none" stroke-width="1"
        d="M 17.00,75.00
           C 17.00,75.00 17.00,67.00 17.00,67.00
             17.00,67.00 23.00,67.00 23.00,67.00
             23.06,71.47 22.42,73.40 27.00,75.00
             27.00,75.00 27.00,67.00 27.00,67.00
             27.00,67.00 33.00,67.00 33.00,67.00
             33.06,71.47 32.42,73.40 37.00,75.00
             37.00,75.00 37.00,67.00 37.00,67.00
             37.00,67.00 43.00,67.00 43.00,67.00
             43.06,71.47 42.42,73.40 47.00,75.00
             47.00,75.00 47.00,67.00 47.00,67.00
             47.00,67.00 53.00,67.00 53.00,67.00
             53.06,71.47 52.42,73.40 57.00,75.00
             57.00,75.00 57.00,67.00 57.00,67.00
             57.00,67.00 63.00,67.00 63.00,67.00
             63.06,71.47 62.42,73.40 67.00,75.00
             67.00,75.00 67.00,27.00 67.00,27.00
             62.79,28.48 63.15,29.83 63.00,34.00
             63.00,34.00 57.00,34.00 57.00,34.00
             57.00,34.00 57.00,27.00 57.00,27.00
             52.79,28.48 53.15,29.83 53.00,34.00
             53.00,34.00 47.00,34.00 47.00,34.00
             47.00,34.00 47.00,27.00 47.00,27.00
             42.79,28.48 43.15,29.83 43.00,34.00
             43.00,34.00 37.00,34.00 37.00,34.00
             37.00,34.00 37.00,27.00 37.00,27.00
             32.79,28.48 33.15,29.83 33.00,34.00
             33.00,34.00 27.00,34.00 27.00,34.00
             27.00,34.00 27.00,27.00 27.00,27.00
             22.79,28.48 23.15,29.83 23.00,34.00
             23.00,34.00 17.00,34.00 17.00,34.00
             17.00,34.00 17.00,27.00 17.00,27.00
             12.86,28.45 13.08,29.85 13.00,34.00
             13.00,34.00 13.00,68.00 13.00,68.00
             13.08,72.15 12.86,73.55 17.00,75.00 Z
           M 23.00,38.00
           C 23.00,38.00 23.00,63.00 23.00,63.00
             23.00,63.00 17.00,63.00 17.00,63.00
             17.00,63.00 17.00,38.00 17.00,38.00
             17.00,38.00 23.00,38.00 23.00,38.00 Z
           M 33.00,38.00
           C 33.00,38.00 33.00,63.00 33.00,63.00
             33.00,63.00 27.00,63.00 27.00,63.00
             27.00,63.00 27.00,38.00 27.00,38.00
             27.00,38.00 33.00,38.00 33.00,38.00 Z
           M 43.00,38.00
           C 43.00,38.00 43.00,63.00 43.00,63.00
             43.00,63.00 37.00,63.00 37.00,63.00
             37.00,63.00 37.00,38.00 37.00,38.00
             37.00,38.00 43.00,38.00 43.00,38.00 Z
           M 53.00,38.00
           C 53.00,38.00 53.00,63.00 53.00,63.00
             53.00,63.00 47.00,63.00 47.00,63.00
             47.00,63.00 47.00,38.00 47.00,38.00
             47.00,38.00 53.00,38.00 53.00,38.00 Z
           M 63.00,38.00
           C 63.00,38.00 63.00,63.00 63.00,63.00
             63.00,63.00 57.00,63.00 57.00,63.00
             57.00,63.00 57.00,38.00 57.00,38.00
             57.00,38.00 63.00,38.00 63.00,38.00 Z" />
</svg>
