<?xml version="1.0" encoding="UTF-8" standalone="no"?>
<!DOCTYPE svg PUBLIC "-//W3C//DTD SVG 20010904//EN"
              "http://www.w3.org/TR/2001/REC-SVG-20010904/DTD/svg10.dtd">

<svg xmlns="http://www.w3.org/2000/svg"
     width="0.32in" height="0.283333in"
     viewBox="0 0 96 85">
  <path id="Auswahl"
        fill="#ffffff" stroke="none" stroke-width="1"
        d="M 52.00,41.00
           C 52.00,41.00 52.00,25.00 52.00,25.00
             52.00,22.70 52.38,18.59 50.40,17.02
             49.06,15.96 46.62,16.03 45.00,16.00
             45.00,16.00 28.00,16.00 28.00,16.00
             20.78,16.01 18.15,15.85 18.00,24.00
             18.00,24.00 18.00,70.00 18.00,70.00
             18.01,77.22 17.85,79.85 26.00,80.00
             26.00,80.00 72.00,80.00 72.00,80.00
             74.54,79.99 78.48,80.32 80.40,78.40
             82.04,76.77 81.96,74.14 82.00,72.00
             82.00,72.00 82.00,48.00 82.00,48.00
             81.96,46.05 82.10,43.37 80.40,42.02
             78.92,40.85 75.82,41.01 74.00,41.00
             74.00,41.00 52.00,41.00 52.00,41.00 Z
           M 48.00,21.00
           C 48.00,21.00 48.00,36.00 48.00,36.00
             48.00,36.00 23.00,36.00 23.00,36.00
             23.00,36.00 23.00,21.00 23.00,21.00
             23.00,21.00 48.00,21.00 48.00,21.00 Z
           M 29.00,24.00
           C 28.42,24.20 27.54,24.20 26.59,25.00
             21.82,29.06 30.27,35.33 29.63,26.98
             29.63,26.98 29.00,24.00 29.00,24.00 Z
           M 48.00,40.00
           C 48.00,40.00 48.00,75.00 48.00,75.00
             48.00,75.00 23.00,75.00 23.00,75.00
             23.00,75.00 23.00,40.00 23.00,40.00
             23.00,40.00 48.00,40.00 48.00,40.00 Z
           M 26.54,45.17
           C 23.65,49.13 26.55,52.05 28.46,50.83
             30.02,49.84 30.97,44.58 26.54,45.17 Z
           M 77.00,45.00
           C 77.00,45.00 77.00,51.00 77.00,51.00
             77.00,51.00 52.00,51.00 52.00,51.00
             52.00,51.00 52.00,45.00 52.00,45.00
             52.00,45.00 77.00,45.00 77.00,45.00 Z
           M 63.00,55.00
           C 63.00,55.00 63.00,75.00 63.00,75.00
             63.00,75.00 52.00,75.00 52.00,75.00
             52.00,75.00 52.00,55.00 52.00,55.00
             52.00,55.00 63.00,55.00 63.00,55.00 Z
           M 77.00,55.00
           C 77.00,55.00 77.00,75.00 77.00,75.00
             77.00,75.00 67.00,75.00 67.00,75.00
             67.00,75.00 67.00,55.00 67.00,55.00
             67.00,55.00 77.00,55.00 77.00,55.00 Z" />
</svg>
