<?xml version="1.0" encoding="UTF-8" standalone="no"?>
<!DOCTYPE svg PUBLIC "-//W3C//DTD SVG 20010904//EN"
              "http://www.w3.org/TR/2001/REC-SVG-20010904/DTD/svg10.dtd">

<svg xmlns="http://www.w3.org/2000/svg"
     width="0.28in" height="0.266667in"
     viewBox="0 0 84 80">
  <path id="Auswahl"
        fill="#ffffff" stroke="none" stroke-width="1"
        d="M 19.00,8.53
           C 6.67,12.49 8.00,21.39 8.00,32.00
             8.00,32.00 8.00,55.00 8.00,55.00
             8.06,59.91 8.54,64.10 12.22,67.78
             15.90,71.46 20.09,71.94 25.00,72.00
             25.00,72.00 53.00,72.00 53.00,72.00
             58.11,71.99 62.71,72.10 66.89,68.58
             71.28,64.89 71.93,60.37 72.00,55.00
             72.00,55.00 72.00,25.00 72.00,25.00
             71.97,22.57 71.94,20.36 71.20,18.00
             67.12,4.99 50.64,8.00 40.00,8.00
             33.95,8.00 24.64,7.60 19.00,8.53 Z
           M 18.04,13.21
           C 18.04,13.21 55.00,13.21 55.00,13.21
             57.63,13.00 61.50,12.78 63.77,14.17
             67.00,16.15 66.95,19.66 67.00,23.00
             67.00,23.00 67.00,55.00 67.00,55.00
             66.99,58.37 67.41,62.85 64.57,65.26
             62.32,67.18 58.79,66.98 56.00,67.00
             56.00,67.00 24.00,67.00 24.00,67.00
             20.84,66.98 17.00,67.23 14.74,64.57
             12.82,62.32 13.02,58.79 13.00,56.00
             13.00,56.00 13.00,24.00 13.00,24.00
             13.03,18.65 12.64,15.81 18.04,13.21 Z
           M 35.00,18.53
           C 30.58,19.85 26.64,21.64 23.53,25.18
             9.44,41.21 23.88,66.35 45.00,61.47
             61.73,57.61 67.79,36.44 55.67,24.33
             50.03,18.68 42.60,17.29 35.00,18.53 Z
           M 37.00,22.33
           C 42.89,21.73 48.44,22.86 52.79,27.21
             62.19,36.61 58.48,55.03 43.00,57.67
             26.69,60.46 16.08,41.96 25.65,29.04
             28.66,24.97 32.26,23.46 37.00,22.33 Z
           M 32.16,38.16
           C 28.60,40.44 31.86,42.51 33.46,41.62
             35.19,40.64 34.81,38.76 32.16,38.16 Z
           M 47.16,38.16
           C 43.60,40.44 46.86,42.51 48.46,41.62
             50.19,40.64 49.81,38.76 47.16,38.16 Z" />
</svg>
