<?xml version="1.0" encoding="UTF-8" standalone="no"?>
<!DOCTYPE svg PUBLIC "-//W3C//DTD SVG 20010904//EN"
              "http://www.w3.org/TR/2001/REC-SVG-20010904/DTD/svg10.dtd">

<svg xmlns="http://www.w3.org/2000/svg"
     width="0.326667in" height="0.29in"
     viewBox="0 0 98 87">
  <path id="Auswahl"
        fill="#ffffff" stroke="none" stroke-width="1"
        d="M 32.00,50.00
           C 32.00,50.00 32.00,75.00 32.00,75.00
             32.00,75.00 26.00,76.00 26.00,76.00
             26.97,77.72 27.10,78.53 29.14,79.40
             31.49,80.40 47.31,80.01 51.00,80.00
             52.48,80.00 61.23,80.33 58.83,76.54
             57.88,75.03 55.54,75.13 54.00,75.00
             54.00,75.00 54.00,70.00 54.00,70.00
             63.03,70.00 69.80,70.69 76.90,63.82
             79.55,61.25 86.28,50.35 82.36,47.02
             80.89,45.77 76.90,46.00 75.00,46.00
             75.00,46.00 37.00,46.00 37.00,46.00
             37.00,46.00 37.00,24.00 37.00,24.00
             36.96,21.86 37.04,19.23 35.40,17.60
             33.15,15.35 23.85,15.35 21.60,17.60
             19.96,19.23 20.04,21.86 20.00,24.00
             20.00,24.00 20.00,41.00 20.00,41.00
             20.00,42.99 19.77,46.81 21.02,48.40
             22.78,50.63 29.29,50.00 32.00,50.00 Z
           M 32.00,21.00
           C 32.00,21.00 32.00,46.00 32.00,46.00
             32.00,46.00 25.00,46.00 25.00,46.00
             25.00,46.00 25.00,21.00 25.00,21.00
             25.00,21.00 32.00,21.00 32.00,21.00 Z
           M 39.00,40.00
           C 42.56,43.52 44.25,42.99 49.00,43.00
             57.21,43.02 73.79,43.75 81.00,42.00
             81.00,42.00 81.00,39.00 81.00,39.00
             74.04,37.31 61.61,38.00 54.00,38.00
             48.16,38.00 44.32,37.20 39.00,40.00 Z
           M 79.00,50.00
           C 78.25,57.05 73.96,63.02 67.00,65.20
             60.23,67.32 52.89,63.89 50.60,69.15
             49.93,70.68 50.02,73.32 50.00,75.00
             50.00,75.00 37.00,75.00 37.00,75.00
             37.00,75.00 37.00,50.00 37.00,50.00
             37.00,50.00 79.00,50.00 79.00,50.00 Z" />
</svg>
